<svg width="49" height="49" viewBox="0 0 49 49" fill="none" xmlns="http://www.w3.org/2000/svg">
<path d="M48.7314 14.4927C48.7041 12.4415 48.3201 10.4106 47.5966 8.49105C46.9692 6.87188 46.011 5.40138 44.7831 4.17351C43.5552 2.94563 42.0847 1.98739 40.4656 1.36001C38.5707 0.648681 36.5688 0.264055 34.5452 0.222506C31.9397 0.106048 31.1137 0.0735474 24.4999 0.0735474C17.8862 0.0735474 17.0385 0.0735475 14.452 0.222506C12.4293 0.26436 10.4284 0.648982 8.53432 1.36001C6.9149 1.98696 5.44417 2.94504 4.21624 4.17297C2.98832 5.4009 2.03023 6.87162 1.40328 8.49105C0.69053 10.3845 0.306738 12.3859 0.268488 14.4088C0.15203 17.0169 0.116821 17.8429 0.116821 24.4567C0.116821 31.0704 0.116821 31.9154 0.268488 34.5046C0.309113 36.5304 0.690988 38.5292 1.40328 40.4277C2.03128 42.0467 2.99008 43.5168 4.21842 44.7442C5.44676 45.9716 6.91762 46.9293 8.53703 47.5561C10.4259 48.296 12.4272 48.7081 14.4547 48.7748C17.0629 48.8913 17.8889 48.9265 24.5027 48.9265C31.1164 48.9265 31.9641 48.9265 34.5506 48.7748C36.5741 48.735 38.5761 48.3512 40.471 47.64C42.0897 47.0119 43.5599 46.0534 44.7876 44.8256C46.0154 43.5978 46.9739 42.1277 47.602 40.509C48.3143 38.6131 48.6962 36.6144 48.7368 34.5858C48.8533 31.9804 48.8885 31.1544 48.8885 24.5379C48.8831 17.9242 48.8831 17.0846 48.7314 14.4927V14.4927ZM24.4837 36.9638C17.5666 36.9638 11.9631 31.3602 11.9631 24.4431C11.9631 17.526 17.5666 11.9225 24.4837 11.9225C27.8044 11.9225 30.989 13.2416 33.3371 15.5897C35.6852 17.9378 37.0043 21.1225 37.0043 24.4431C37.0043 27.7638 35.6852 30.9485 33.3371 33.2966C30.989 35.6446 27.8044 36.9638 24.4837 36.9638V36.9638ZM37.5027 14.379C37.1192 14.3793 36.7393 14.304 36.385 14.1575C36.0306 14.0109 35.7086 13.7958 35.4374 13.5246C35.1662 13.2535 34.9512 12.9315 34.8046 12.5771C34.658 12.2227 34.5827 11.8429 34.5831 11.4594C34.5831 11.0762 34.6586 10.6967 34.8052 10.3426C34.9519 9.98857 35.1668 9.66686 35.4378 9.39588C35.7088 9.1249 36.0305 8.90994 36.3845 8.76329C36.7386 8.61663 37.1181 8.54115 37.5013 8.54115C37.8845 8.54115 38.264 8.61663 38.6181 8.76329C38.9721 8.90994 39.2938 9.1249 39.5648 9.39588C39.8358 9.66686 40.0507 9.98857 40.1974 10.3426C40.3441 10.6967 40.4195 11.0762 40.4195 11.4594C40.4195 13.0735 39.1141 14.379 37.5027 14.379Z" fill="url(#paint0_linear_104_390)"/>
<path d="M24.4837 32.5762C28.9755 32.5762 32.6168 28.9349 32.6168 24.4431C32.6168 19.9513 28.9755 16.31 24.4837 16.31C19.9919 16.31 16.3506 19.9513 16.3506 24.4431C16.3506 28.9349 19.9919 32.5762 24.4837 32.5762Z" fill="url(#paint1_linear_104_390)"/>
<defs>
<linearGradient id="paint0_linear_104_390" x1="0.116821" y1="24.6412" x2="48.8885" y2="24.6412" gradientUnits="userSpaceOnUse">
<stop stop-color="#EDFFEC"/>
<stop offset="1" stop-color="#ACD9AA"/>
</linearGradient>
<linearGradient id="paint1_linear_104_390" x1="16.3506" y1="24.4901" x2="32.6168" y2="24.4901" gradientUnits="userSpaceOnUse">
<stop stop-color="#EDFFEC"/>
<stop offset="1" stop-color="#ACD9AA"/>
</linearGradient>
</defs>
</svg>
