<svg width="43" height="43" viewBox="0 0 43 43" fill="none" xmlns="http://www.w3.org/2000/svg">
<path d="M42.7491 12.7243C42.7252 10.9256 42.3884 9.14468 41.754 7.46133C41.2038 6.04145 40.3635 4.75193 39.2868 3.67518C38.21 2.59843 36.9205 1.75813 35.5006 1.20796C33.8389 0.584182 32.0834 0.246895 30.3089 0.210459C28.0241 0.108334 27.2997 0.079834 21.5 0.079834C15.7002 0.079834 14.9569 0.0798341 12.6887 0.210459C10.915 0.247162 9.16031 0.584446 7.49936 1.20796C6.07925 1.75775 4.78953 2.59791 3.71274 3.67471C2.63594 4.75151 1.79577 6.04122 1.24598 7.46133C0.620958 9.12177 0.284401 10.8768 0.250859 12.6507C0.148734 14.9378 0.117859 15.6622 0.117859 21.462C0.117859 27.2617 0.117859 28.0027 0.250859 30.2732C0.286484 32.0497 0.621359 33.8025 1.24598 35.4673C1.79669 36.887 2.63749 38.1762 3.71464 39.2525C4.7918 40.3289 6.08164 41.1687 7.50173 41.7183C9.15814 42.3672 10.9131 42.7286 12.6911 42.7871C14.9782 42.8892 15.7026 42.9201 21.5024 42.9201C27.3021 42.9201 28.0455 42.9201 30.3136 42.7871C32.0881 42.7521 33.8437 42.4156 35.5054 41.792C36.9249 41.2412 38.2141 40.4006 39.2907 39.324C40.3674 38.2473 41.2079 36.9581 41.7587 35.5386C42.3834 33.8761 42.7182 32.1233 42.7539 30.3445C42.856 28.0597 42.8869 27.3353 42.8869 21.5332C42.8821 15.7335 42.8821 14.9972 42.7491 12.7243V12.7243ZM21.4857 32.4297C15.42 32.4297 10.5061 27.5158 10.5061 21.4501C10.5061 15.3843 15.42 10.4705 21.4857 10.4705C24.3977 10.4705 27.1904 11.6272 29.2495 13.6863C31.3086 15.7454 32.4654 18.5381 32.4654 21.4501C32.4654 24.3621 31.3086 27.1548 29.2495 29.2139C27.1904 31.2729 24.3977 32.4297 21.4857 32.4297V32.4297ZM32.9024 12.6246C32.5661 12.6249 32.233 12.5589 31.9222 12.4303C31.6115 12.3018 31.3291 12.1132 31.0913 11.8754C30.8535 11.6376 30.6649 11.3552 30.5364 11.0445C30.4078 10.7337 30.3418 10.4006 30.3421 10.0643C30.3421 9.72827 30.4083 9.3955 30.5369 9.08502C30.6655 8.77454 30.854 8.49243 31.0916 8.2548C31.3293 8.01717 31.6114 7.82867 31.9219 7.70007C32.2323 7.57146 32.5651 7.50527 32.9012 7.50527C33.2372 7.50527 33.57 7.57146 33.8805 7.70007C34.191 7.82867 34.4731 8.01717 34.7107 8.2548C34.9483 8.49243 35.1368 8.77454 35.2654 9.08502C35.394 9.3955 35.4602 9.72827 35.4602 10.0643C35.4602 11.4798 34.3155 12.6246 32.9024 12.6246Z" fill="url(#paint0_linear_104_389)"/>
<path d="M21.4858 28.5824C25.4247 28.5824 28.6179 25.3892 28.6179 21.4502C28.6179 17.5113 25.4247 14.3181 21.4858 14.3181C17.5468 14.3181 14.3536 17.5113 14.3536 21.4502C14.3536 25.3892 17.5468 28.5824 21.4858 28.5824Z" fill="url(#paint1_linear_104_389)"/>
<defs>
<linearGradient id="paint0_linear_104_389" x1="0.117859" y1="21.6238" x2="42.8869" y2="21.6238" gradientUnits="userSpaceOnUse">
<stop stop-color="#202E20"/>
<stop offset="1" stop-color="#538752"/>
</linearGradient>
<linearGradient id="paint1_linear_104_389" x1="14.3536" y1="21.4915" x2="28.6179" y2="21.4915" gradientUnits="userSpaceOnUse">
<stop stop-color="#202E20"/>
<stop offset="1" stop-color="#538752"/>
</linearGradient>
</defs>
</svg>
