<svg width="60" height="80" viewBox="0 0 60 80" fill="none" xmlns="http://www.w3.org/2000/svg">
<path d="M59.0578 59.1391L46.5862 45H51.3679C52.7744 45 54.0186 44.2188 54.6118 42.9594C55.205 41.7031 55.0099 40.2625 54.0998 39.2016L41.9029 25H46.413C47.8335 25 49.1137 24.1641 49.6694 22.8734C50.2189 21.6031 49.9598 20.125 49.0075 19.1109L31.7933 0.7547C30.8519 -0.253113 29.0957 -0.253113 28.1528 0.7547L10.937 19.1109C9.98478 20.125 9.7272 21.6031 10.2751 22.8734C10.8309 24.1641 12.1126 25 13.5331 25H18.0432L5.84475 39.2047C4.93775 40.2641 4.74262 41.7031 5.33427 42.9609C5.92749 44.2188 7.17012 45 8.57823 45H13.3599L0.888271 59.1391C-0.048387 60.2 -0.260696 61.6531 0.33252 62.9297C0.917931 64.1875 2.20584 65 3.61238 65H24.9775V68.8203L20.249 76.3828C19.4185 78.0453 20.6268 80.0016 22.4829 80.0016H37.4632C39.3193 80.0016 40.5276 78.0453 39.6971 76.3828L34.9686 68.8203V65H56.3337C57.7403 65 59.0282 64.1875 59.6136 62.9297C60.2068 61.6531 59.9945 60.2 59.0578 59.1391Z" fill="url(#paint0_linear_101_106)"/>
<defs>
<linearGradient id="paint0_linear_101_106" x1="0.000701905" y1="40.2314" x2="59.9454" y2="40.2314" gradientUnits="userSpaceOnUse">
<stop stop-color="#202E20"/>
<stop offset="1" stop-color="#538752"/>
</linearGradient>
</defs>
</svg>
