<svg width="80" height="71" viewBox="0 0 80 71" fill="none" xmlns="http://www.w3.org/2000/svg">
<path d="M75.8613 1.33844C75.0835 -0.386396 72.8613 -0.45539 71.9307 1.17286C67.6252 8.61036 59.9168 13.2467 51.1113 13.2467H40.0002C25.2779 13.2467 13.3335 25.1136 13.3335 39.7402C13.3335 40.7061 13.4446 41.6306 13.5418 42.569C22.4029 36.2629 35.1946 30.9091 53.3335 30.9091C54.5557 30.9091 55.5557 31.9026 55.5557 33.1168C55.5557 34.3311 54.5557 35.3246 53.3335 35.3246C18.4168 35.3246 3.61126 56.5884 0.333486 64.5779C-0.583181 66.8271 0.500152 69.3936 2.76404 70.3181C5.04182 71.2564 7.62515 70.1663 8.5696 67.931C8.77793 67.4342 11.4724 61.3214 18.5557 55.4293C23.0557 61.487 31.6113 67.2686 42.8474 66.0819C64.6529 64.5089 80.0002 45.0803 80.0002 21.2914C80.0002 14.3644 78.5002 7.18909 75.8613 1.33844V1.33844Z" fill="url(#paint0_linear_101_104)"/>
<defs>
<linearGradient id="paint0_linear_101_104" x1="0.00775147" y1="35.5303" x2="80.0002" y2="35.5303" gradientUnits="userSpaceOnUse">
<stop stop-color="#202E20"/>
<stop offset="1" stop-color="#538752"/>
</linearGradient>
</defs>
</svg>
