<svg width="49" height="49" viewBox="0 0 49 49" fill="none" xmlns="http://www.w3.org/2000/svg">
<path d="M46.1667 0.125H2.83333C2.11504 0.125 1.42616 0.410341 0.918252 0.918252C0.410341 1.42616 0.125 2.11504 0.125 2.83333V46.1667C0.125 46.885 0.410341 47.5738 0.918252 48.0817C1.42616 48.5897 2.11504 48.875 2.83333 48.875H46.1667C46.885 48.875 47.5738 48.5897 48.0817 48.0817C48.5897 47.5738 48.875 46.885 48.875 46.1667V2.83333C48.875 2.11504 48.5897 1.42616 48.0817 0.918252C47.5738 0.410341 46.885 0.125 46.1667 0.125V0.125ZM14.5848 41.6627H7.34812V18.3981H14.5848V41.6627ZM10.9665 15.2213C9.85454 15.2213 8.78816 14.7795 8.00191 13.9933C7.21567 13.207 6.77396 12.1407 6.77396 11.0287C6.77396 9.91683 7.21567 8.85045 8.00191 8.06421C8.78816 7.27796 9.85454 6.83625 10.9665 6.83625C12.0784 6.83625 13.1448 7.27796 13.931 8.06421C14.7172 8.85045 15.159 9.91683 15.159 11.0287C15.159 12.1407 14.7172 13.207 13.931 13.9933C13.1448 14.7795 12.0784 15.2213 10.9665 15.2213V15.2213ZM41.6654 41.6627H34.4369V30.35C34.4369 27.6525 34.3881 24.1831 30.6777 24.1831C26.9131 24.1831 26.3417 27.1244 26.3417 30.1604V41.6654H19.1185V18.4008H26.0519V21.5804H26.1521C27.1135 19.7523 29.4752 17.824 32.9879 17.824C40.3112 17.824 41.6627 22.6394 41.6627 28.9065V41.6627H41.6654Z" fill="url(#paint0_linear_104_332)"/>
<defs>
<linearGradient id="paint0_linear_104_332" x1="0.125" y1="24.6409" x2="48.875" y2="24.6409" gradientUnits="userSpaceOnUse">
<stop stop-color="#EDFFEC"/>
<stop offset="1" stop-color="#ACD9AA"/>
</linearGradient>
</defs>
</svg>
