<svg width="43" height="43" viewBox="0 0 43 43" fill="none" xmlns="http://www.w3.org/2000/svg">
<path d="M40.5 0.125H2.5C1.87011 0.125 1.26602 0.375222 0.820621 0.820621C0.375222 1.26602 0.125 1.87011 0.125 2.5V40.5C0.125 41.1299 0.375222 41.734 0.820621 42.1794C1.26602 42.6248 1.87011 42.875 2.5 42.875H40.5C41.1299 42.875 41.734 42.6248 42.1794 42.1794C42.6248 41.734 42.875 41.1299 42.875 40.5V2.5C42.875 1.87011 42.6248 1.26602 42.1794 0.820621C41.734 0.375222 41.1299 0.125 40.5 0.125V0.125ZM12.8051 36.5504H6.45912V16.1491H12.8051V36.5504ZM9.63212 13.3633C8.65706 13.3633 7.72192 12.9759 7.03245 12.2864C6.34297 11.597 5.95562 10.6618 5.95562 9.68675C5.95562 8.71168 6.34297 7.77655 7.03245 7.08707C7.72192 6.39759 8.65706 6.01025 9.63212 6.01025C10.6072 6.01025 11.5423 6.39759 12.2318 7.08707C12.9213 7.77655 13.3086 8.71168 13.3086 9.68675C13.3086 10.6618 12.9213 11.597 12.2318 12.2864C11.5423 12.9759 10.6072 13.3633 9.63212 13.3633V13.3633ZM36.5527 36.5504H30.2139V26.63C30.2139 24.2645 30.1711 21.2221 26.9174 21.2221C23.6161 21.2221 23.115 23.8014 23.115 26.4638V36.5527H16.7809V16.1515H22.8609V18.9397H22.9487C23.7919 17.3366 25.8629 15.6456 28.9432 15.6456C35.3652 15.6456 36.5504 19.8684 36.5504 25.3641V36.5504H36.5527Z" fill="url(#paint0_linear_101_163)"/>
<defs>
<linearGradient id="paint0_linear_101_163" x1="0.125" y1="21.6236" x2="42.875" y2="21.6236" gradientUnits="userSpaceOnUse">
<stop stop-color="#202E20"/>
<stop offset="1" stop-color="#538752"/>
</linearGradient>
</defs>
</svg>
